<svg width="62" height="28" viewBox="0 0 62 28" fill="none" xmlns="http://www.w3.org/2000/svg">
<rect x="2" y="2" width="58" height="24.0415" fill="#EC111A"/>
<path d="M3.95349 4.40417V23.6373H7.40945L7.55971 15.0726L9.0623 23.6373H11.0157L12.5183 15.0726V23.6373H19.1297L19.5804 20.7824H22.2851L22.7359 23.6373H29.4975V17.4767H30.2488L31.7514 23.6373H35.2074L33.1038 16.4249C34.288 15.2354 34.8474 14.4377 35.2074 12.2176L37.1607 23.6373H41.368L44.0727 6.65806V23.6373H50.6841V20.1814H47.5286V15.8239H50.6841V12.2176H47.5286V8.01039H50.6841V4.40417H40.9172L39.2644 16.7254L37.912 4.40417H34.0053L34.3058 7.2591C33.7048 5.75651 31.7514 4.40417 30.5493 4.40417H25.8913V21.2332L23.4872 4.40417H18.6789L16.1245 21.8342V4.40417H11.6167L9.96385 13.8705L8.311 4.40417H3.95349Z" fill="white"/>
<path d="M51.2851 23.6373V4.40417H54.7411V20.3316H57.7462V23.6373H51.2851Z" fill="white"/>
<path d="M21.0831 9.66315L20.0312 17.3264H22.1349L21.0831 9.66315Z" fill="#EC111A"/>
<path d="M29.4976 13.7201V7.70978C30.8815 8.14672 31.7515 8.91185 31.7515 10.8652C31.7515 12.2175 30.9046 13.5298 29.4976 13.7201Z" fill="#EC111A"/>
</svg>
